<svg width="18" height="18" viewBox="0 0 18 18" fill="none" xmlns="http://www.w3.org/2000/svg">
<g clip-path="url(#clip0_7_50881)">
<path d="M12.548 2.11621H5.64098C3.73368 2.11621 2.1875 3.66239 2.1875 5.56969V12.4767C2.1875 14.384 3.73368 15.9301 5.64098 15.9301H12.548C14.4553 15.9301 16.0014 14.384 16.0014 12.4767V5.56969C16.0014 3.66239 14.4553 2.11621 12.548 2.11621Z" stroke="black" stroke-width="1.84186" stroke-linecap="round" stroke-linejoin="round"/>
<path d="M11.8551 8.588C11.9403 9.16283 11.8421 9.74991 11.5745 10.2657C11.3068 10.7815 10.8834 11.1998 10.3643 11.4611C9.84522 11.7223 9.25698 11.8133 8.68324 11.721C8.10951 11.6286 7.57949 11.3578 7.16858 10.9468C6.75767 10.5359 6.48679 10.0059 6.39447 9.43218C6.30214 8.85845 6.39308 8.27021 6.65435 7.75114C6.91561 7.23207 7.3339 6.80859 7.84971 6.54095C8.36552 6.2733 8.95259 6.17512 9.52742 6.26036C10.1138 6.3473 10.6566 6.62053 11.0758 7.03967C11.4949 7.45882 11.7681 8.00166 11.8551 8.588Z" stroke="black" stroke-width="1.84186" stroke-linecap="round" stroke-linejoin="round"/>
<ellipse cx="12.8915" cy="5.22452" rx="1.03605" ry="1.03605" fill="#2C090B"/>
</g>
<defs>
<clipPath id="clip0_7_50881">
<rect width="16.5767" height="16.5767" fill="white" transform="translate(0.804688 0.734863)"/>
</clipPath>
</defs>
</svg>
