<svg width="14" height="12" viewBox="0 0 14 12" fill="none" xmlns="http://www.w3.org/2000/svg">
<path d="M13.8749 1.66135C13.3815 1.90988 12.8882 1.99273 12.3126 2.07557C12.8882 1.7442 13.2993 1.24714 13.4638 0.584388C12.9704 0.915762 12.3948 1.08145 11.737 1.24714C11.2437 0.750075 10.5036 0.418701 9.76359 0.418701C8.36575 0.418701 7.13236 1.66135 7.13236 3.15253C7.13236 3.40106 7.13236 3.56675 7.21459 3.73244C4.99449 3.64959 2.93885 2.57263 1.62323 0.915762C1.37656 1.32998 1.29433 1.7442 1.29433 2.3241C1.29433 3.23538 1.78769 4.06381 2.52772 4.56087C2.11659 4.56087 1.70546 4.39518 1.29433 4.2295C1.29433 5.55499 2.19881 6.63196 3.4322 6.88049C3.18552 6.96333 2.93885 6.96333 2.69217 6.96333C2.52772 6.96333 2.36327 6.96333 2.19881 6.88049C2.52772 7.95745 3.51443 8.78589 4.74782 8.78589C3.84333 9.53148 2.69217 9.94569 1.37656 9.94569C1.12988 9.94569 0.965427 9.94569 0.71875 9.94569C1.95214 10.6913 3.34998 11.1883 4.83004 11.1883C9.76359 11.1883 12.477 7.04617 12.477 3.48391C12.477 3.40106 12.477 3.23538 12.477 3.15253C13.0526 2.73832 13.546 2.24126 13.8749 1.66135Z" fill="#2C090B"/>
</svg>
