<svg width="20" height="20" viewBox="0 0 20 20" fill="none" xmlns="http://www.w3.org/2000/svg">
<g clip-path="url(#clip0_4_396)">
<path d="M12.5835 1.0875C12.247 0.743175 11.8451 0.469576 11.4014 0.282779C10.9577 0.0959817 10.4811 -0.000244141 9.99973 -0.000244141C9.5183 -0.000244141 9.04174 0.0959817 8.59804 0.282779C8.15433 0.469576 7.75244 0.743175 7.41598 1.0875L6.63848 1.885L5.52598 1.87125C5.04441 1.86555 4.56657 1.9562 4.12055 2.13786C3.67453 2.31952 3.26934 2.58853 2.9288 2.92907C2.58826 3.26961 2.31925 3.67481 2.13759 4.12083C1.95592 4.56685 1.86528 5.04469 1.87098 5.52625L1.88348 6.63875L1.08848 7.41625C0.744152 7.75271 0.470552 8.1546 0.283755 8.59831C0.0969582 9.04201 0.000732422 9.51858 0.000732422 10C0.000732422 10.4814 0.0969582 10.958 0.283755 11.4017C0.470552 11.8454 0.744152 12.2473 1.08848 12.5838L1.88473 13.3612L1.87098 14.4738C1.86528 14.9553 1.95592 15.4332 2.13759 15.8792C2.31925 16.3252 2.58826 16.7304 2.9288 17.0709C3.26934 17.4115 3.67453 17.6805 4.12055 17.8621C4.56657 18.0438 5.04441 18.1345 5.52598 18.1287L6.63848 18.1163L7.41598 18.9112C7.75244 19.2556 8.15433 19.5292 8.59804 19.716C9.04174 19.9028 9.5183 19.999 9.99973 19.999C10.4811 19.999 10.9577 19.9028 11.4014 19.716C11.8451 19.5292 12.247 19.2556 12.5835 18.9112L13.361 18.115L14.4735 18.1287C14.955 18.1345 15.4329 18.0438 15.8789 17.8621C16.3249 17.6805 16.7301 17.4115 17.0707 17.0709C17.4112 16.7304 17.6802 16.3252 17.8619 15.8792C18.0435 15.4332 18.1342 14.9553 18.1285 14.4738L18.116 13.3612L18.911 12.5838C19.2553 12.2473 19.5289 11.8454 19.7157 11.4017C19.9025 10.958 19.9987 10.4814 19.9987 10C19.9987 9.51858 19.9025 9.04201 19.7157 8.59831C19.5289 8.1546 19.2553 7.75271 18.911 7.41625L18.1147 6.63875L18.1285 5.52625C18.1342 5.04469 18.0435 4.56685 17.8619 4.12083C17.6802 3.67481 17.4112 3.26961 17.0707 2.92907C16.7301 2.58853 16.3249 2.31952 15.8789 2.13786C15.4329 1.9562 14.955 1.86555 14.4735 1.87125L13.361 1.88375L12.5835 1.08875V1.0875ZM12.9422 8.5675L9.19223 12.3175C9.13417 12.3757 9.0652 12.4219 8.98927 12.4534C8.91334 12.4849 8.83194 12.5011 8.74973 12.5011C8.66752 12.5011 8.58612 12.4849 8.51018 12.4534C8.43425 12.4219 8.36528 12.3757 8.30723 12.3175L6.43223 10.4425C6.37412 10.3844 6.32802 10.3154 6.29657 10.2395C6.26512 10.1636 6.24894 10.0822 6.24894 10C6.24894 9.91782 6.26512 9.83644 6.29657 9.76052C6.32802 9.6846 6.37412 9.61561 6.43223 9.5575C6.49034 9.49939 6.55932 9.45329 6.63525 9.42185C6.71117 9.3904 6.79255 9.37421 6.87473 9.37421C6.95691 9.37421 7.03828 9.3904 7.11421 9.42185C7.19013 9.45329 7.25912 9.49939 7.31723 9.5575L8.74973 10.9913L12.0572 7.6825C12.1746 7.56514 12.3338 7.49921 12.4997 7.49921C12.6657 7.49921 12.8249 7.56514 12.9422 7.6825C13.0596 7.79986 13.1255 7.95903 13.1255 8.125C13.1255 8.29097 13.0596 8.45014 12.9422 8.5675Z" fill="#4ECB71"/>
</g>
<defs>
<clipPath id="clip0_4_396">
<rect width="20" height="20" fill="white"/>
</clipPath>
</defs>
</svg>
