<svg width="117" height="38" viewBox="0 0 117 38" fill="none" xmlns="http://www.w3.org/2000/svg">
<path d="M33.5532 26.6082C33.3698 26.1648 33.1978 25.6985 33.0143 25.3005L32.1657 23.4015L32.1313 23.3674C29.6086 17.9091 26.9139 12.3598 24.0586 6.90154L23.9439 6.67411C23.6572 6.13966 23.3706 5.54834 23.0724 5.00251C22.7055 4.35434 22.35 3.66068 21.7652 3.00114C21.1951 2.31104 20.4777 1.75505 19.6647 1.37327C18.8516 0.991491 17.9633 0.793457 17.0637 0.793457C16.1641 0.793457 15.2758 0.991491 14.4627 1.37327C13.6497 1.75505 12.9323 2.31104 12.3622 3.00114C11.8233 3.66068 11.4219 4.35434 11.055 5.00251C10.7683 5.59383 10.4816 6.17377 10.1835 6.70823L10.0688 6.93566C7.25942 12.3939 4.51881 17.9432 1.99607 23.4015L1.92727 23.4697C1.675 24.061 1.37685 24.6751 1.09018 25.3346C0.906708 25.7326 0.723236 26.1648 0.539764 26.6424C0.0444272 27.893 -0.113749 29.25 0.080823 30.5797C0.275395 31.9094 0.816001 33.1659 1.64936 34.2253C2.48272 35.2847 3.58007 36.1105 4.83326 36.6213C6.08646 37.1321 7.45224 37.3102 8.796 37.1382C10.0843 36.97 11.3248 36.5445 12.4425 35.8873C13.9332 35.0572 15.3666 33.8518 16.972 32.112C18.5773 33.8518 20.0451 35.0572 21.5014 35.8987C22.9019 36.7139 24.4878 37.1638 26.1112 37.2064C27.991 37.2142 29.8102 36.5472 31.2329 35.3287C32.6555 34.1101 33.5856 32.4223 33.8514 30.5769C34.1585 29.2507 34.0546 27.8635 33.5532 26.5969V26.6082ZM17.0866 28.4959C15.1143 25.9942 13.83 23.6972 13.3943 21.7299C13.2137 21.0009 13.1748 20.2445 13.2796 19.5011C13.3599 18.9212 13.5777 18.4094 13.8759 17.9773C14.5639 16.988 15.7679 16.374 17.0866 16.374C17.7129 16.355 18.3341 16.4905 18.8945 16.7684C19.4549 17.0462 19.937 17.4577 20.2974 17.966C20.5955 18.4208 20.8134 18.9212 20.8822 19.5011C20.9969 20.1606 20.951 20.9225 20.7675 21.7299C20.3318 23.663 19.0475 25.9828 17.0866 28.4959ZM31.6956 30.1789C31.5653 31.1158 31.1897 32.0026 30.6063 32.7507C30.0228 33.4989 29.2518 34.0824 28.3702 34.4432C27.4987 34.807 26.5354 34.9094 25.5951 34.807C24.6778 34.6933 23.7604 34.3977 22.8201 33.8518C21.2589 32.8949 19.8551 31.706 18.6576 30.3267C21.0657 27.3701 22.522 24.6751 23.0724 22.2757C23.3361 21.1386 23.3706 20.1152 23.2559 19.1713C23.1127 18.2767 22.7763 17.4233 22.2697 16.6696C21.6913 15.8523 20.9193 15.1884 20.0215 14.7363C19.1238 14.2842 18.1277 14.0578 17.121 14.0769C14.9996 14.0769 13.1076 15.0549 11.9609 16.6582C11.4447 17.4101 11.1111 18.2702 10.9862 19.1713C10.8371 20.1265 10.8715 21.1841 11.1697 22.2757C11.7201 24.6751 13.2108 27.4042 15.5845 30.3494C14.4073 31.7551 13.0002 32.9545 11.4219 33.8973C10.4702 34.4432 9.56429 34.7274 8.64693 34.8412C7.2203 35.0224 5.7792 34.6379 4.63688 33.7712C3.49455 32.9046 2.74332 31.6259 2.54649 30.213C2.43182 29.3033 2.51209 28.3936 2.87903 27.3701C2.9937 27.0062 3.16571 26.6424 3.34918 26.2102C3.60145 25.6189 3.89959 25.0049 4.18627 24.3908L4.23214 24.3112C6.70901 18.887 9.41522 13.3491 12.2246 7.92497L12.3393 7.69754C12.626 7.15172 12.9127 6.57177 13.2108 6.02594C13.5089 5.446 13.83 4.8888 14.2428 4.43394C14.6001 4.01095 15.0466 3.67077 15.5508 3.43737C16.0551 3.20396 16.6047 3.083 17.1612 3.083C17.7176 3.083 18.2673 3.20396 18.7715 3.43737C19.2757 3.67077 19.7222 4.01095 20.0795 4.43394C20.4809 4.8888 20.8134 5.446 21.1116 6.02594C21.3982 6.57177 21.6849 7.16309 21.983 7.69754L22.0977 7.92497C24.8957 13.3491 27.6019 18.887 30.1246 24.3112L30.159 24.3453C30.4572 24.9366 30.7094 25.5962 30.9961 26.1648C31.1796 26.6082 31.363 26.9608 31.4777 27.336C31.6956 28.3594 31.8103 29.2692 31.6956 30.1789ZM47.6576 28.2457C46.7936 28.2583 45.9377 28.0777 45.1536 27.7175C44.3695 27.3572 43.6772 26.8265 43.1282 26.1648C41.8944 24.7547 41.2396 22.9365 41.2935 21.0704C41.2746 19.1636 41.9505 17.3142 43.197 15.8622C43.7735 15.192 44.4913 14.6553 45.2996 14.2899C46.1079 13.9244 46.9872 13.7392 47.8755 13.7471C48.7114 13.7245 49.5393 13.9129 50.2815 14.2949C51.0237 14.6768 51.6558 15.2396 52.1183 15.9305L52.233 14.1451H55.5813V27.8818H52.2215L52.1068 25.8805C51.63 26.6181 50.9709 27.2226 50.1922 27.6366C49.4135 28.0505 48.5411 28.2602 47.6576 28.2457ZM48.5291 24.9708C49.1942 24.9708 49.779 24.7888 50.3295 24.459C50.834 24.0952 51.2468 23.6176 51.5679 23.0376C51.8546 22.4577 52.0036 21.764 52.0036 20.9908C52.0483 20.3192 51.9165 19.6475 51.621 19.0416C51.3256 18.4357 50.8766 17.9161 50.318 17.5338C49.7813 17.2022 49.1615 17.0264 48.5291 17.0264C47.8967 17.0264 47.277 17.2022 46.7403 17.5338C46.2357 17.8977 45.8229 18.3753 45.5018 18.9553C45.1986 19.5948 45.0494 20.2956 45.0661 21.0021C45.0214 21.6737 45.1532 22.3453 45.4487 22.9513C45.7442 23.5572 46.1931 24.0767 46.7518 24.459C47.2907 24.7888 47.8755 24.9708 48.5291 24.9708ZM61.3148 10.4381C61.3148 10.8361 61.246 11.1999 61.0626 11.4956C60.8791 11.7799 60.6268 12.0414 60.2943 12.2234C59.9617 12.4053 59.6063 12.4735 59.2393 12.4735C58.8724 12.4735 58.5054 12.4053 58.1729 12.2234C57.8584 12.0497 57.5939 11.7992 57.4046 11.4956C57.227 11.1717 57.1399 10.8066 57.1523 10.4381C57.1523 10.0287 57.2326 9.6648 57.4046 9.38052C57.5881 9.03937 57.8518 8.83469 58.1729 8.65274C58.5054 8.4708 58.8609 8.3912 59.2393 8.3912C59.6043 8.38286 59.9653 8.46859 60.2868 8.64C60.6084 8.81142 60.8797 9.06265 61.074 9.36914C61.2409 9.70068 61.3236 10.0676 61.3148 10.4381ZM57.4161 27.8364V14.1224H61.0626V27.8591H57.4046L57.4161 27.8364ZM70.8095 17.7158V17.7613C70.6375 17.6817 70.4082 17.6476 70.2362 17.6134C70.0068 17.568 69.8233 17.5679 69.6055 17.5679C68.5849 17.5679 67.8166 17.8636 67.3121 18.4777C66.7617 19.1031 66.5094 19.9787 66.5094 21.1045V27.8477H62.8514V14.111H66.2112L66.3259 16.192C66.6929 15.4642 67.1286 14.9184 67.7478 14.509C68.3637 14.1113 69.0889 13.9126 69.8233 13.9405C70.0871 13.9405 70.3394 13.9632 70.5572 14.0087C70.6719 14.0428 70.7407 14.0428 70.8095 14.0769V17.7158ZM72.2773 27.8364V8.48217H75.9238V15.8736C76.4398 15.2141 77.0246 14.7023 77.7585 14.3043C78.9203 13.7395 80.2402 13.5792 81.5051 13.8495C82.7701 14.1198 83.9063 14.8048 84.7304 15.794C85.9669 17.207 86.6219 19.0298 86.5652 20.8998C86.584 22.8065 85.9081 24.6559 84.6616 26.1079C84.0851 26.7781 83.3674 27.3148 82.559 27.6803C81.7507 28.0457 80.8714 28.2309 79.9831 28.223C79.1472 28.2457 78.3193 28.0572 77.5771 27.6753C76.8349 27.2933 76.2028 26.7305 75.7403 26.0397L75.6256 27.825L72.2773 27.8591V27.8364ZM79.3295 24.9708C79.9831 24.9708 80.5679 24.7888 81.1183 24.459C81.6229 24.0952 82.0357 23.6176 82.3568 23.0376C82.6549 22.4577 82.7925 21.764 82.7925 20.9908C82.7925 20.2289 82.6549 19.5352 82.3568 18.9553C82.0556 18.3961 81.6326 17.9105 81.1183 17.5338C80.5816 17.2022 79.9619 17.0264 79.3295 17.0264C78.6971 17.0264 78.0774 17.2022 77.5406 17.5338C77.0246 17.8977 76.6233 18.3753 76.2907 18.9553C75.9875 19.5948 75.8383 20.2956 75.855 21.0021C75.8103 21.6737 75.9421 22.3453 76.2376 22.9513C76.533 23.5572 76.982 24.0767 77.5406 24.459C78.0796 24.7888 78.6644 24.9708 79.3295 24.9708ZM87.9412 27.8477V14.111H91.301L91.4157 15.8963C91.8379 15.212 92.4368 14.6519 93.1505 14.2741C93.8642 13.8962 94.6667 13.7143 95.475 13.7471C96.3994 13.7313 97.3079 13.9861 98.087 14.4796C98.8661 14.9731 99.4812 15.6834 99.8554 16.5218C100.257 17.386 100.475 18.4549 100.475 19.6489V27.8818H96.8167V20.1265C96.8167 19.1713 96.5988 18.4208 96.163 17.8636C95.7273 17.3178 95.131 17.0221 94.3742 17.0221C93.8238 17.0221 93.3422 17.1358 92.9179 17.386C92.5165 17.6476 92.184 17.9773 91.9317 18.4436C91.6766 18.9148 91.5502 19.444 91.5648 19.9787V27.8477H87.9412ZM102.298 27.8477V8.4708H105.956V15.8622C106.451 15.199 107.096 14.6595 107.838 14.2864C108.581 13.9133 109.401 13.717 110.233 13.713C111.097 13.7005 111.953 13.881 112.737 14.2413C113.521 14.6015 114.213 15.1322 114.762 15.794C115.99 17.2069 116.641 19.0241 116.586 20.8884C116.606 22.7953 115.93 24.6451 114.682 26.0965C114.106 26.7667 113.388 27.3035 112.58 27.6689C111.771 28.0343 110.892 28.2196 110.004 28.2116C109.168 28.2343 108.34 28.0458 107.598 27.6639C106.855 27.282 106.223 26.7191 105.761 26.0283L105.658 27.8136L102.298 27.8477ZM109.384 24.9708C110.05 24.9708 110.634 24.7888 111.173 24.459C111.689 24.0952 112.091 23.6176 112.423 23.0376C112.71 22.4577 112.859 21.764 112.859 20.9908C112.904 20.3192 112.772 19.6475 112.476 19.0416C112.181 18.4357 111.732 17.9161 111.173 17.5338C110.637 17.2022 110.017 17.0264 109.384 17.0264C108.752 17.0264 108.132 17.2022 107.596 17.5338C107.091 17.8977 106.678 18.3753 106.357 18.9553C106.037 19.5891 105.887 20.2941 105.921 21.0021C105.877 21.6737 106.009 22.3453 106.304 22.9513C106.6 23.5572 107.048 24.0767 107.607 24.459C108.146 24.7888 108.696 24.9708 109.384 24.9708Z" fill="#9BA3B0"/>
</svg>
