<svg width="105" height="32" viewBox="0 0 105 32" fill="none" xmlns="http://www.w3.org/2000/svg">
<path d="M77.7335 30.5795L86.404 20.9764L77.7335 11.3721H86.8817L91.1761 16.0372L95.3112 11.3721H104.14L95.511 20.9368L104.259 30.5795H95.073L90.8176 25.876L86.6024 30.5795H77.7335Z" fill="#9BA3B0"/>
<path d="M77.7336 7.06653H67.9136V11.3721H77.7336V17.861H67.9136V23.817H77.7336V30.5795H60.696V0.322754H77.7336V7.06653Z" fill="#9BA3B0"/>
<path d="M53.5088 0.322754V12.7053H53.4297C51.8386 10.9025 49.8505 10.276 47.5438 10.276C42.8187 10.276 39.2594 13.4423 38.01 17.6284C36.5852 13.0158 32.9106 10.1896 27.4618 10.1896C23.0369 10.1896 19.5427 12.1474 17.7192 15.3377V11.3726H8.57274V7.06742H18.5541V0.322754H0.419434V30.5799H8.57274V17.861H16.6994C16.4571 18.7954 16.3278 19.7957 16.3278 20.8513C16.3278 27.1628 21.2192 31.5914 27.4618 31.5914C32.7113 31.5914 36.1707 29.1621 38.0005 24.7331H31.0134C30.0682 26.0636 29.3513 26.4588 27.4618 26.4588C25.2708 26.4588 23.3818 24.5745 23.3818 22.3408H37.609C38.2261 27.354 42.1877 31.6774 47.6243 31.6774C49.9694 31.6774 52.1166 30.5403 53.4297 28.6203H53.5088V30.5791H60.6961V0.322754H53.5088ZM23.6087 17.9515C24.0621 16.0297 25.5741 14.7736 27.4618 14.7736C29.5398 14.7736 30.975 15.9909 31.3525 17.9515C31.5116 17.9515 23.6087 17.9515 23.6087 17.9515ZM49.1472 25.9727C46.4978 25.9727 44.8515 23.5394 44.8515 20.9988C44.8515 18.283 46.2835 15.6715 49.1472 15.6715C52.1166 15.6715 53.2995 18.283 53.2995 20.9988C53.2991 23.5742 52.0456 25.9727 49.1472 25.9727Z" fill="#9BA3B0"/>
</svg>
