<svg width="110" height="36" viewBox="0 0 110 36" fill="none" xmlns="http://www.w3.org/2000/svg">
<path d="M47.2109 18.9216C47.2109 23.9725 43.2015 27.6944 38.281 27.6944C33.3605 27.6944 29.3511 23.9725 29.3511 18.9216C29.3511 13.8351 33.3605 10.1488 38.281 10.1488C43.2015 10.1488 47.2109 13.8351 47.2109 18.9216ZM43.3018 18.9216C43.3018 15.7653 40.978 13.6057 38.281 13.6057C35.584 13.6057 33.2602 15.7653 33.2602 18.9216C33.2602 22.0463 35.584 24.2375 38.281 24.2375C40.978 24.2375 43.3018 22.0423 43.3018 18.9216Z" fill="#9BA3B0"/>
<path d="M66.4753 18.9216C66.4753 23.9725 62.4659 27.6944 57.5454 27.6944C52.6249 27.6944 48.6155 23.9725 48.6155 18.9216C48.6155 13.8391 52.6249 10.1488 57.5454 10.1488C62.4659 10.1488 66.4753 13.8351 66.4753 18.9216ZM62.5662 18.9216C62.5662 15.7653 60.2424 13.6057 57.5454 13.6057C54.8484 13.6057 52.5246 15.7653 52.5246 18.9216C52.5246 22.0463 54.8484 24.2375 57.5454 24.2375C60.2424 24.2375 62.5662 22.0423 62.5662 18.9216Z" fill="#9BA3B0"/>
<path d="M84.9373 10.6788V26.4287C84.9373 32.9075 81.0603 35.5536 76.4769 35.5536C72.1625 35.5536 69.5657 32.7097 68.5865 30.384L71.9899 28.9878C72.5959 30.4157 74.0809 32.1006 76.4729 32.1006C79.4067 32.1006 81.2248 30.3168 81.2248 26.9588V25.697H81.0884C80.2134 26.761 78.5278 27.6905 76.4007 27.6905C71.9497 27.6905 67.8721 23.8697 67.8721 18.9533C67.8721 14.0012 71.9497 10.1488 76.4007 10.1488C78.5238 10.1488 80.2094 11.0783 81.0884 12.1106H81.2248V10.6828H84.9373V10.6788ZM81.5018 18.9533C81.5018 15.8642 79.4107 13.6057 76.7498 13.6057C74.0528 13.6057 71.7932 15.8642 71.7932 18.9533C71.7932 22.0107 74.0528 24.2375 76.7498 24.2375C79.4107 24.2375 81.5018 22.0107 81.5018 18.9533Z" fill="#9BA3B0"/>
<path d="M91.0579 1.44727V27.1566H87.2451V1.44727H91.0579Z" fill="#9BA3B0"/>
<path d="M105.916 21.8091L108.95 23.8026C107.971 25.2305 105.611 27.6907 101.533 27.6907C96.4761 27.6907 92.6995 23.8382 92.6995 18.9178C92.6995 13.7008 96.5082 10.145 101.096 10.145C105.715 10.145 107.975 13.7681 108.713 15.7259L109.118 16.7227L97.2186 21.5797C98.1297 23.3398 99.5464 24.2377 101.533 24.2377C103.524 24.2377 104.904 23.2726 105.916 21.8091ZM96.5765 18.6528L104.531 15.3976C104.094 14.302 102.777 13.5387 101.228 13.5387C99.2414 13.5387 96.4761 15.2671 96.5765 18.6528Z" fill="#9BA3B0"/>
<path d="M14.9189 16.6395V12.9175H27.6455C27.7699 13.5662 27.8342 14.3335 27.8342 15.1641C27.8342 17.9566 27.0596 21.4095 24.5632 23.8697C22.1351 26.3615 19.0327 27.6905 14.9229 27.6905C7.30537 27.6905 0.899902 21.5757 0.899902 14.0685C0.899902 6.5614 7.30537 0.446533 14.9229 0.446533C19.137 0.446533 22.1391 2.07611 24.3946 4.2001L21.7297 6.8264C20.1123 5.33131 17.9209 4.16845 14.9189 4.16845C9.35624 4.16845 5.00566 8.5865 5.00566 14.0685C5.00566 19.5505 9.35624 23.9686 14.9189 23.9686C18.527 23.9686 20.5819 22.5407 21.8983 21.2434C22.9658 20.1913 23.6682 18.6883 23.9451 16.6355L14.9189 16.6395Z" fill="#9BA3B0"/>
</svg>
