<svg width="118" height="38" viewBox="0 0 118 38" fill="none" xmlns="http://www.w3.org/2000/svg">
<path d="M13.4294 6.82458V17.0888H4.84059V6.82458H0.762939V31.3263H4.84059V21.3954H13.4294V31.3263H17.5071V6.82458H13.4294Z" fill="#9BA3B0"/>
<path d="M30.5571 23.4062C30.5571 24.3882 30.2017 25.3299 29.569 26.0242C28.9364 26.7186 28.0783 27.1087 27.1837 27.1087C26.289 27.1087 25.4309 26.7186 24.7983 26.0242C24.1657 25.3299 23.8103 24.3882 23.8103 23.4062V12.9117H19.9424V23.4062C19.9424 25.512 20.7046 27.5316 22.0613 29.0206C23.418 30.5096 25.258 31.3462 27.1767 31.3462C29.0953 31.3462 30.9354 30.5096 32.2921 29.0206C33.6488 27.5316 34.411 25.512 34.411 23.4062V12.9117H30.5571V23.4062Z" fill="#9BA3B0"/>
<path d="M59.2149 13.9927C59.2149 11.8416 60.5115 11.1596 61.932 11.1596C63.0767 11.1596 64.5891 12.1157 65.5781 13.2756L68.1114 9.99968C66.8467 8.12269 64.2815 6.82458 62.1817 6.82458C57.9862 6.82458 54.9514 9.52166 54.9514 13.9927C54.9514 22.2878 64.1896 19.6565 64.1896 24.2986C64.1896 25.7304 62.9229 26.9956 61.4724 26.9956C59.1849 26.9956 58.4437 25.7677 57.3928 24.4696L54.5818 27.6776C56.3799 30.1006 58.5975 31.3307 61.2547 31.3307C65.2404 31.3307 68.447 28.6007 68.447 24.3337C68.447 15.1241 59.2089 17.9857 59.2089 13.9927" fill="#9BA3B0"/>
<path d="M116.365 27.4123C114.08 27.4123 113.431 26.3269 113.431 24.6648V17.3081H116.983V13.5804H113.431V8.66211L109.509 10.5939V25.5791C109.509 29.4121 111.918 31.3439 115.223 31.3439C115.741 31.3542 116.259 31.3087 116.769 31.2079L117.726 27.3421C117.294 27.375 116.799 27.4079 116.365 27.4079" fill="#9BA3B0"/>
<path d="M45.2794 13.0345C43.3634 13.0345 42.0268 13.6441 40.7342 15.0365V6.97156H36.8604V21.9195C36.8604 27.5154 40.5464 31.3483 44.688 31.3483C49.2831 31.3483 53.3248 27.4474 53.3248 22.1936C53.3248 17.0056 49.6048 13.0367 45.2794 13.0367V13.0345ZM45.2554 27.0703C44.3861 27.0703 43.5363 26.7873 42.8135 26.2573C42.0907 25.7272 41.5273 24.9738 41.1947 24.0923C40.862 23.2108 40.775 22.2409 40.9445 21.3051C41.1141 20.3693 41.5328 19.5098 42.1474 18.8351C42.7621 18.1605 43.5453 17.701 44.3979 17.5149C45.2505 17.3287 46.1343 17.4243 46.9374 17.7894C47.7406 18.1545 48.427 18.7728 48.91 19.5661C49.3929 20.3594 49.6507 21.2921 49.6507 22.2462C49.6507 23.5256 49.1876 24.7526 48.3634 25.6573C47.5391 26.562 46.4211 27.0703 45.2554 27.0703Z" fill="#9BA3B0"/>
<path d="M87.3426 21.9699C87.3426 16.7073 83.3089 12.8152 78.7058 12.8152C74.5642 12.8152 70.8782 16.6481 70.8782 22.244V37.2007H74.752V29.1248C76.0427 30.515 77.3812 31.1268 79.2952 31.1268C83.6206 31.1268 87.3406 27.1601 87.3406 21.9699H87.3426ZM83.6745 21.9173C83.6745 22.8714 83.4167 23.804 82.9338 24.5974C82.4508 25.3907 81.7644 26.009 80.9612 26.3741C80.1581 26.7392 79.2743 26.8347 78.4217 26.6486C77.5691 26.4625 76.786 26.003 76.1713 25.3284C75.5566 24.6537 75.138 23.7942 74.9684 22.8584C74.7988 21.9226 74.8858 20.9527 75.2185 20.0712C75.5511 19.1897 76.1145 18.4363 76.8373 17.9062C77.5601 17.3762 78.4099 17.0932 79.2792 17.0932C80.4449 17.0932 81.5629 17.6015 82.3872 18.5062C83.2114 19.4108 83.6745 20.6378 83.6745 21.9173Z" fill="#9BA3B0"/>
<path d="M99.8574 12.6093V8.33785C100.372 8.07409 100.807 7.65542 101.113 7.13058C101.419 6.60574 101.583 5.99632 101.586 5.37326V5.27459C101.586 4.40226 101.27 3.56566 100.708 2.94883C100.146 2.332 99.3835 1.98547 98.5887 1.98547H98.4988C97.704 1.98547 96.9418 2.332 96.3797 2.94883C95.8177 3.56566 95.502 4.40226 95.502 5.27459V5.37326C95.5046 5.99632 95.6685 6.60574 95.9744 7.13058C96.2804 7.65542 96.7158 8.07409 97.2302 8.33785V12.6093C95.7519 12.8575 94.3597 13.53 93.1945 14.5587L82.5218 5.43466C82.5974 5.13378 82.6377 4.82357 82.6417 4.51151C82.6429 3.77849 82.446 3.06155 82.0759 2.45138C81.7058 1.84121 81.1791 1.36521 80.5625 1.08359C79.9459 0.801975 79.267 0.727394 78.6118 0.869282C77.9565 1.01117 77.3543 1.36315 76.8814 1.88071C76.4084 2.39826 76.0859 3.05814 75.9547 3.77687C75.8235 4.4956 75.8895 5.2409 76.1442 5.9185C76.399 6.59609 76.8311 7.17554 77.386 7.58355C77.9408 7.99156 78.5934 8.2098 79.2613 8.21067C79.8453 8.2078 80.4185 8.03694 80.9235 7.71511L91.4343 16.69C90.4899 18.2556 89.9971 20.0971 90.0203 21.9746C90.0435 23.852 90.5815 25.6783 91.5642 27.2152L88.3676 30.7236C88.1091 30.633 87.8398 30.5849 87.5685 30.5811C87.0202 30.5815 86.4843 30.7603 86.0286 31.0949C85.5729 31.4295 85.2178 31.9048 85.0081 32.4609C84.7985 33.0169 84.7437 33.6287 84.8508 34.2189C84.9579 34.8091 85.2219 35.3512 85.6096 35.7767C85.9973 36.2022 86.4912 36.492 87.029 36.6095C87.5667 36.727 88.1241 36.6669 88.6307 36.4369C89.1374 36.2068 89.5705 35.817 89.8753 35.3168C90.1802 34.8167 90.3431 34.2285 90.3435 33.6268C90.3401 33.329 90.2963 33.0334 90.2136 32.7497L93.3763 29.2786C94.4075 30.1496 95.6068 30.75 96.8821 31.0338C98.1574 31.3176 99.475 31.2772 100.734 30.9159C101.993 30.5546 103.16 29.8818 104.145 28.9491C105.131 28.0164 105.908 26.8485 106.419 25.5349C106.93 24.2213 107.16 22.7969 107.092 21.3706C107.023 19.9444 106.659 18.5543 106.025 17.3067C105.392 16.0591 104.507 14.9871 103.438 14.1729C102.369 13.3587 101.144 12.8238 99.8574 12.6093ZM98.5468 26.656C97.6817 26.6552 96.8362 26.3729 96.1173 25.8448C95.3983 25.3167 94.8381 24.5665 94.5075 23.6891C94.1769 22.8117 94.0907 21.8464 94.2598 20.9152C94.4289 19.984 94.8458 19.1288 95.4576 18.4575C96.0695 17.7863 96.8489 17.3292 97.6974 17.144C98.5459 16.9589 99.4254 17.0539 100.225 17.4171C101.024 17.7804 101.707 18.3956 102.188 19.1849C102.669 19.9742 102.926 20.9022 102.926 21.8517C102.926 23.1253 102.465 24.3468 101.645 25.2473C100.824 26.1479 99.7112 26.6538 98.5508 26.6538" fill="#9BA3B0"/>
</svg>
