<svg width="159" height="34" viewBox="0 0 159 34" fill="none" xmlns="http://www.w3.org/2000/svg">
<path d="M56.2579 19.5669L55.3129 22.2386H55.2341C55.0766 21.6362 54.7879 20.7194 54.3154 19.6193L49.2491 6.91552H44.2878V27.163H47.5691V14.6688C47.5691 13.883 47.5691 12.9924 47.5428 11.8923C47.5166 11.3422 47.4641 10.9231 47.4378 10.6088H47.5166C47.6741 11.3946 47.8578 11.9708 47.9891 12.3375L54.0791 27.1106H56.3891L62.4266 12.2066C62.5579 11.8661 62.6891 11.185 62.8204 10.6088H62.8991C62.8204 12.1018 62.7679 13.4377 62.7416 14.2497V27.0844H66.2329V6.86314H61.4554L56.2579 19.5669ZM69.5404 12.5733H72.9529V27.0844H69.5404V12.5733ZM71.2729 6.44404C70.6954 6.44404 70.2229 6.65359 69.8291 7.0203C69.4354 7.387 69.2254 7.85848 69.2254 8.43474C69.2254 8.9848 69.4354 9.45628 69.8291 9.82298C70.2229 10.1897 70.6954 10.373 71.2729 10.373C71.8504 10.373 72.3491 10.1635 72.7166 9.82298C73.1104 9.45628 73.3204 8.9848 73.3204 8.43474C73.3204 7.88468 73.1104 7.4132 72.7166 7.0203C72.3754 6.65359 71.8766 6.44404 71.2729 6.44404ZM85.0542 12.4423C84.4242 12.3114 83.7679 12.2328 83.1379 12.2328C81.5892 12.2328 80.1717 12.5733 78.9904 13.2543C77.8092 13.9353 76.8642 14.8783 76.2604 16.057C75.6304 17.2619 75.3154 18.6501 75.3154 20.2479C75.3154 21.6362 75.6304 22.8673 76.2341 23.9936C76.8379 25.0937 77.6779 25.9843 78.8067 26.5867C79.8829 27.1892 81.1429 27.5035 82.5604 27.5035C84.1879 27.5035 85.5792 27.163 86.6817 26.5343L86.7079 26.5081V23.3649L86.5767 23.4697C86.0779 23.8364 85.5004 24.1507 84.9229 24.3341C84.3192 24.5436 83.7679 24.6484 83.2954 24.6484C81.9304 24.6484 80.8542 24.2555 80.0929 23.3911C79.3054 22.5529 78.9117 21.4004 78.9117 19.9598C78.9117 18.4668 79.3054 17.2881 80.1192 16.4237C80.9329 15.5593 82.0092 15.114 83.3217 15.114C84.4242 15.114 85.5529 15.4807 86.5767 16.2142L86.7079 16.3189V12.9924L86.6817 12.9662C86.2354 12.7828 85.7367 12.5733 85.0542 12.4423ZM96.3154 12.3375C95.4754 12.3375 94.6879 12.5995 94.0054 13.1495C93.4279 13.621 93.0342 14.302 92.6929 15.114H92.6667V12.5733H89.2542V27.0844H92.6667V19.6717C92.6667 18.4144 92.9292 17.3667 93.5067 16.6071C94.0842 15.8213 94.8192 15.4284 95.7117 15.4284C96.0267 15.4284 96.3417 15.5069 96.7354 15.5593C97.1029 15.6641 97.3654 15.7689 97.5492 15.8998L97.6804 16.0046V12.5995L97.6017 12.5733C97.3654 12.4161 96.8929 12.3375 96.3154 12.3375ZM105.608 12.259C103.219 12.259 101.303 12.9662 99.9642 14.3544C98.5992 15.7427 97.9429 17.6548 97.9429 20.0646C97.9429 22.3172 98.6254 24.1507 99.9379 25.4866C101.25 26.7963 103.035 27.4773 105.267 27.4773C107.603 27.4773 109.467 26.7701 110.805 25.3556C112.17 23.9412 112.827 22.0553 112.827 19.7241C112.827 17.4191 112.197 15.5855 110.91 14.2497C109.677 12.9138 107.865 12.259 105.608 12.259ZM108.338 23.4173C107.708 24.2293 106.71 24.6222 105.477 24.6222C104.243 24.6222 103.245 24.2293 102.537 23.3649C101.828 22.5529 101.487 21.3742 101.487 19.8812C101.487 18.3358 101.854 17.1571 102.537 16.3189C103.245 15.4807 104.217 15.0617 105.45 15.0617C106.658 15.0617 107.603 15.4546 108.285 16.2665C108.968 17.0785 109.335 18.2572 109.335 19.8026C109.283 21.3742 108.994 22.6053 108.338 23.4173ZM120.439 18.5978C119.363 18.1525 118.68 17.812 118.365 17.5238C118.103 17.2619 117.972 16.8952 117.972 16.4237C117.972 16.0308 118.129 15.6379 118.523 15.376C118.917 15.114 119.363 14.9831 120.019 14.9831C120.597 14.9831 121.2 15.0878 121.778 15.245C122.355 15.4022 122.88 15.6379 123.3 15.9522L123.432 16.057V12.8614L123.353 12.8352C122.959 12.6781 122.434 12.5209 121.804 12.3899C121.174 12.2852 120.597 12.2328 120.124 12.2328C118.497 12.2328 117.158 12.6257 116.108 13.4901C115.058 14.302 114.559 15.4022 114.559 16.6856C114.559 17.3667 114.664 17.9691 114.9 18.4668C115.137 18.9645 115.478 19.4359 115.95 19.8288C116.423 20.1955 117.105 20.6146 118.05 21.0075C118.838 21.3481 119.442 21.61 119.809 21.8195C120.177 22.0291 120.413 22.2648 120.597 22.4482C120.728 22.6577 120.807 22.9197 120.807 23.2602C120.807 24.2293 120.072 24.7008 118.575 24.7008C117.998 24.7008 117.394 24.596 116.685 24.3603C115.977 24.1245 115.32 23.784 114.769 23.3911L114.638 23.2864V26.6129L114.717 26.6391C115.215 26.8749 115.819 27.032 116.554 27.2154C117.289 27.3463 117.945 27.4511 118.523 27.4511C120.282 27.4511 121.725 27.0582 122.749 26.1938C123.799 25.3556 124.35 24.2817 124.35 22.8935C124.35 21.9243 124.088 21.0599 123.51 20.4051C122.749 19.7765 121.804 19.1216 120.439 18.5978ZM133.354 12.259C130.965 12.259 129.049 12.9662 127.71 14.3544C126.372 15.7427 125.689 17.6548 125.689 20.0646C125.689 22.3172 126.372 24.1507 127.684 25.4866C128.997 26.7963 130.782 27.4773 133.013 27.4773C135.349 27.4773 137.213 26.7701 138.552 25.3556C139.917 23.9412 140.573 22.0553 140.573 19.7241C140.573 17.4191 139.943 15.5855 138.657 14.2497C137.423 12.9138 135.612 12.259 133.354 12.259ZM136.058 23.4173C135.428 24.2293 134.431 24.6222 133.197 24.6222C131.937 24.6222 130.966 24.2293 130.257 23.3649C129.548 22.5529 129.207 21.3742 129.207 19.8812C129.207 18.3358 129.574 17.1571 130.257 16.3189C130.966 15.4807 131.937 15.0617 133.171 15.0617C134.352 15.0617 135.323 15.4546 136.006 16.2665C136.688 17.0785 137.056 18.2572 137.056 19.8026C137.056 21.3742 136.714 22.6053 136.058 23.4173ZM158.817 15.376V12.5733H155.378V8.27758L155.273 8.30377L152.018 9.27292L151.939 9.29912V12.5733H146.794V10.7398C146.794 9.90156 147.004 9.24673 147.372 8.82764C147.739 8.40854 148.291 8.199 148.973 8.199C149.446 8.199 149.944 8.30377 150.496 8.53951L150.627 8.61809V5.65824L150.548 5.63205C150.076 5.47489 149.446 5.37012 148.632 5.37012C147.608 5.37012 146.716 5.60586 145.902 5.99876C145.088 6.44404 144.484 7.04649 144.038 7.85848C143.592 8.64428 143.356 9.53486 143.356 10.5564V12.5733H140.967V15.3498H143.356V27.0844H146.794V15.376H151.939V22.8411C151.939 25.9057 153.383 27.4511 156.271 27.4511C156.743 27.4511 157.242 27.3725 157.714 27.2939C158.213 27.1892 158.581 27.0582 158.791 26.9534L158.817 26.9272V24.1245L158.686 24.2293C158.476 24.3603 158.292 24.4651 157.977 24.5436C157.714 24.6222 157.478 24.6484 157.294 24.6484C156.612 24.6484 156.139 24.4913 155.798 24.0984C155.483 23.7316 155.326 23.1292 155.326 22.2386V15.376H158.817Z" fill="#9BA3B0"/>
<path d="M0.292969 0.105347H16.3843V16.1619H0.292969V0.105347Z" fill="#9BA3B0"/>
<path d="M18.064 0.105347H34.1552V16.1619H18.064V0.105347Z" fill="#9BA3B0"/>
<path d="M0.292725 17.8383H16.384V33.8948H0.292725V17.8383Z" fill="#9BA3B0"/>
<path d="M18.064 17.8383H34.1552V33.8948H18.064V17.8383Z" fill="#9BA3B0"/>
</svg>
