<svg width="146" height="34" viewBox="0 0 146 34" fill="none" xmlns="http://www.w3.org/2000/svg">
<path d="M52.3271 12.1238V14.0388H52.3857C53.0747 13.0135 54.2186 11.8061 56.7542 11.8061C58.7267 11.8061 60.2399 12.8102 60.8884 14.3268H60.947C61.5009 13.56 62.1359 12.9796 62.8475 12.5687C63.6897 12.0815 64.6264 11.8019 65.8064 11.8019C68.477 11.8019 70.8414 13.5388 70.8414 17.9194V26.2273H66.7701V18.4998C66.7701 16.2799 65.9685 14.9962 64.3022 14.9962C63.0817 14.9962 62.1945 15.7673 61.8567 16.7163C61.7396 17.0425 61.6856 17.4873 61.6856 17.8601V26.2315H57.6143V18.1863C57.6143 16.3011 56.8442 14.992 55.2004 14.992C53.8854 14.992 53.0612 15.9664 52.7234 16.801C52.5793 17.1569 52.5343 17.5678 52.5343 17.9533V26.2273H48.4585V12.1238H52.3271ZM91.8551 12.1238V14.7844H91.9677C92.7153 12.7509 94.4897 11.8061 96.048 11.8061C96.4398 11.8061 96.6559 11.8358 96.9712 11.8951V15.5893C96.5974 15.5385 96.2506 15.4877 95.7642 15.4877C93.9988 15.4877 92.7693 16.4536 92.4586 17.966C92.391 18.2795 92.3685 18.6185 92.3685 19.0082V26.2315H88.1892V12.1238H91.8551ZM102.646 7.45093V11.8908H106.177V15.4834H102.646V20.7833C102.646 22.4991 103.11 23.3295 104.488 23.3295C105.136 23.3295 105.614 23.2533 106.028 23.1558L106.082 26.1341C105.528 26.329 104.348 26.5408 103.15 26.5408C101.74 26.5408 100.565 26.079 99.849 25.3631C99.0293 24.5454 98.651 23.2067 98.651 21.3002V7.45093H102.646ZM45.6213 26.2273H41.5681V7.45093H45.6213V26.2273ZM34.8127 21.1901C34.8127 21.4485 34.7902 21.7196 34.7136 21.9526C34.3983 22.9313 33.322 23.7574 31.9799 23.7574C30.8585 23.7574 29.9668 23.1601 29.9668 21.8933C29.9668 19.9572 32.2366 19.4192 34.8172 19.4319V21.1901H34.8127ZM38.8614 17.8135C38.8614 14.6149 37.4112 11.8061 32.5068 11.8061C29.9893 11.8061 27.9897 12.4712 26.8999 13.0644L27.697 15.6317C28.6923 15.0386 30.2821 14.5514 31.7863 14.5514C34.2767 14.5471 34.6821 15.8774 34.6821 16.729V16.9323C29.2552 16.9239 25.828 18.6905 25.828 22.2916C25.828 24.4903 27.5709 26.5493 30.6063 26.5493C32.4753 26.5493 34.0335 25.8503 34.9703 24.7276H35.0604C35.0604 24.7276 35.6819 27.1636 39.0956 26.2315C38.9154 25.2148 38.8569 24.1345 38.8569 22.8338V17.8135H38.8614ZM5.46729 7.45093C5.88612 9.43787 7.07507 15.208 7.07507 15.208C7.57497 17.5805 8.03433 20.0674 8.38111 22.0331H8.44416C8.78193 19.9445 9.31335 17.966 9.88081 15.5173L11.8849 7.45093H16.3209L18.1944 15.7249C18.6853 18.0254 19.0771 19.8005 19.3879 21.9399H19.4464C19.7842 19.7793 20.2255 17.9321 20.7074 15.5682L22.5089 7.45093H26.7648L21.4911 26.2273C18.1314 26.9179 16.8434 25.6469 16.384 23.6303C15.9246 21.6095 15.0239 17.7669 15.0239 17.7669C14.56 15.6614 14.1997 14.1786 13.9475 12.0179H13.8845C13.5242 14.1574 13.1459 15.6571 12.5875 17.7627L10.3762 26.2315C6.94447 26.8755 5.75552 25.9223 5.09799 23.3337C4.53054 21.118 0.990723 7.45516 0.990723 7.45516H5.46729V7.45093ZM81.4338 21.1901C81.4338 21.4485 81.4113 21.7196 81.3347 21.9526C81.0195 22.9313 79.9431 23.7574 78.6011 23.7574C77.4797 23.7574 76.588 23.1601 76.588 21.8933C76.588 19.9572 78.8578 19.4192 81.4383 19.4319V21.1901H81.4338ZM85.4825 17.8135C85.4825 14.6149 84.0324 11.8061 79.128 11.8061C76.6105 11.8061 74.6109 12.4712 73.521 13.0644L74.3181 15.6317C75.3134 15.0386 76.9032 14.5514 78.4074 14.5514C80.8934 14.5471 81.3032 15.8774 81.3032 16.729V16.9323C75.8809 16.9239 72.4537 18.6905 72.4537 22.2916C72.4537 24.4903 74.201 26.5493 77.232 26.5493C79.0965 26.5493 80.6592 25.8503 81.5914 24.7276H81.686C81.686 24.7276 82.3075 27.1636 85.7212 26.2315C85.5411 25.2148 85.4825 24.1345 85.4825 22.8338V17.8135Z" fill="#9BA3B0"/>
<path d="M122.607 19.7605C123.006 20.4462 122.979 21.2116 122.553 21.561L115.182 26.6529C114.414 27.0909 113.265 26.56 112.614 25.4496C111.959 24.3348 112.075 23.0917 112.843 22.6537L121.004 18.9112C121.516 18.7165 122.207 19.0748 122.607 19.7605ZM132.308 19.7605C132.712 19.0748 133.399 18.7209 133.91 18.9067L142.076 22.6493C142.844 23.0873 142.956 24.3304 142.305 25.4452C141.65 26.5556 140.496 27.082 139.733 26.6485L132.362 21.5566C131.94 21.2116 131.908 20.4418 132.308 19.7605ZM127.455 22.521C128.259 22.521 128.919 22.928 129.008 23.4633L129.803 32.3022C129.803 33.1781 128.766 33.8948 127.46 33.8948C126.158 33.8948 125.116 33.1781 125.116 32.3022L125.906 23.4633C125.996 22.928 126.656 22.521 127.455 22.521ZM132.362 12.4435L139.733 7.3472C140.496 6.90924 141.65 7.43568 142.305 8.55049C142.956 9.6653 142.844 10.9084 142.076 11.3464L133.91 15.0934C133.399 15.2792 132.707 14.9253 132.308 14.2396C131.908 13.5539 131.94 12.7885 132.362 12.4435ZM121.004 15.0934L112.843 11.3464C112.08 10.9084 111.963 9.6653 112.614 8.55049C113.265 7.43568 114.419 6.90924 115.182 7.3472L122.553 12.4435C122.979 12.7841 123.006 13.5539 122.607 14.2396C122.207 14.9253 121.516 15.2792 121.004 15.0934ZM125.906 10.5368L125.116 1.69793C125.116 0.822011 126.153 0.105347 127.46 0.105347C128.766 0.105347 129.803 0.822011 129.803 1.69793L129.008 10.5368C128.919 11.0677 128.259 11.4791 127.455 11.4791C126.656 11.4791 125.996 11.0677 125.906 10.5368ZM144.298 26.6175V26.3963H144.5C144.568 26.3963 144.612 26.4406 144.612 26.5069C144.612 26.5689 144.568 26.6175 144.5 26.6175H144.298ZM144.132 27.0201C144.132 27.0422 144.15 27.0643 144.177 27.0643H144.262C144.285 27.0643 144.307 27.0422 144.307 27.0201V26.7679H144.446L144.559 27.0334C144.568 27.0511 144.581 27.0643 144.599 27.0643H144.702C144.734 27.0643 144.756 27.0334 144.743 27.0024C144.702 26.9228 144.662 26.8387 144.621 26.7547C144.689 26.7325 144.792 26.6662 144.792 26.5069C144.792 26.3388 144.653 26.2415 144.514 26.2415H144.177C144.155 26.2415 144.132 26.2636 144.132 26.2857V27.0201ZM143.769 26.6529C143.769 26.2946 144.065 26.0026 144.428 26.0026C144.792 26.0026 145.088 26.2901 145.088 26.6529C145.088 27.0112 144.797 27.3032 144.428 27.3032C144.06 27.3032 143.769 27.0112 143.769 26.6529ZM143.611 26.6529C143.611 27.0953 143.975 27.458 144.428 27.458C144.877 27.458 145.245 27.0953 145.245 26.6529C145.245 26.2105 144.877 25.8478 144.428 25.8478C143.975 25.8478 143.611 26.2105 143.611 26.6529Z" fill="#9BA3B0"/>
</svg>
