<svg width="25" height="24" viewBox="0 0 25 24" fill="none" xmlns="http://www.w3.org/2000/svg">
<g clip-path="url(#clip0_4_77)">
<path d="M5.70592 7.79799V24H0.310924V7.79799H5.70592ZM6.04892 2.79599L6.05092 2.89399C6.05092 3.64299 5.73292 4.31699 5.22492 4.78899L5.22292 4.78999C4.92368 5.06369 4.57312 5.27531 4.19155 5.41263C3.80997 5.54995 3.40495 5.61024 2.99992 5.58999H3.00692H2.97392C2.5782 5.60876 2.18277 5.54749 1.81128 5.40986C1.43979 5.27223 1.09989 5.06106 0.811924 4.78899L0.812924 4.78999C0.545531 4.532 0.33493 4.22104 0.194592 3.87699C0.0542546 3.53295 -0.0127297 3.1634 -0.00207598 2.79199V2.79599L-0.00307598 2.72699C-0.00307598 1.96499 0.320924 1.27899 0.837924 0.797993L0.839924 0.796993C1.44046 0.250049 2.2335 -0.0362351 3.04492 0.000993242H3.03892C3.43648 -0.0184376 3.83391 0.0418913 4.20779 0.178426C4.58167 0.314961 4.92445 0.52494 5.21592 0.795993L5.21392 0.793993C5.47832 1.04816 5.68859 1.35317 5.83209 1.69068C5.97558 2.02819 6.04934 2.39124 6.04892 2.75799V2.79999V2.79799V2.79599ZM25.1109 14.716V24H19.7329V15.335C19.7876 14.3841 19.5522 13.4391 19.0579 12.625L19.0699 12.646C18.8373 12.3184 18.5239 12.0567 18.16 11.8864C17.7962 11.716 17.3944 11.6428 16.9939 11.674H17.0019C16.3761 11.6516 15.7627 11.853 15.2719 12.242L15.2779 12.238C14.8248 12.6032 14.47 13.0759 14.2459 13.613L14.2379 13.636C14.101 14.0658 14.0404 14.5163 14.0589 14.967V14.96V24.002H8.68092C8.70292 19.6533 8.71392 16.1273 8.71392 13.424C8.71392 10.7207 8.70859 9.10766 8.69792 8.58499L8.68192 7.79999H14.0599V10.154H14.0269C14.2409 9.80899 14.4619 9.50999 14.7049 9.22999L14.6969 9.23899C14.9779 8.92999 15.2799 8.65099 15.6049 8.40099L15.6209 8.38899C16.037 8.0697 16.5091 7.83094 17.0129 7.68499L17.0429 7.67799C17.6267 7.50768 18.2318 7.42214 18.8399 7.42399H18.9189H18.9149C19.7532 7.38868 20.5892 7.53592 21.3649 7.85552C22.1407 8.17512 22.8378 8.65945 23.4079 9.27499L23.4109 9.27899C24.5456 10.5163 25.1129 12.3283 25.1129 14.715L25.1109 14.716Z" fill="#699BF7"/>
</g>
<defs>
<clipPath id="clip0_4_77">
<rect width="25" height="24" fill="white"/>
</clipPath>
</defs>
</svg>
